<svg width="32" height="32" viewBox="0 0 32 32" fill="none" xmlns="http://www.w3.org/2000/svg">
<path d="M25.2757 25C26.1615 25 27.011 25.3512 27.6373 25.9763C28.2637 26.6014 28.6155 27.4493 28.6155 28.3333C28.6155 29.2174 28.2637 30.0652 27.6373 30.6904C27.011 31.3155 26.1615 31.6667 25.2757 31.6667C24.3899 31.6667 23.5405 31.3155 22.9141 30.6904C22.2878 30.0652 21.9359 29.2174 21.9359 28.3333C21.9359 27.4493 22.2878 26.6014 22.9141 25.9763C23.5405 25.3512 24.3899 25 25.2757 25ZM25.2757 26.6667C24.8328 26.6667 24.4081 26.8423 24.0949 27.1548C23.7818 27.4674 23.6058 27.8913 23.6058 28.3333C23.6058 28.7754 23.7818 29.1993 24.0949 29.5118C24.4081 29.8244 24.8328 30 25.2757 30C25.7186 30 26.1434 29.8244 26.4565 29.5118C26.7697 29.1993 26.9456 28.7754 26.9456 28.3333C26.9456 27.8913 26.7697 27.4674 26.4565 27.1548C26.1434 26.8423 25.7186 26.6667 25.2757 26.6667ZM10.2466 25C11.1324 25 11.9819 25.3512 12.6082 25.9763C13.2345 26.6014 13.5864 27.4493 13.5864 28.3333C13.5864 29.2174 13.2345 30.0652 12.6082 30.6904C11.9819 31.3155 11.1324 31.6667 10.2466 31.6667C9.36082 31.6667 8.51133 31.3155 7.88499 30.6904C7.25866 30.0652 6.90678 29.2174 6.90678 28.3333C6.90678 27.4493 7.25866 26.6014 7.88499 25.9763C8.51133 25.3512 9.36082 25 10.2466 25ZM10.2466 26.6667C9.80371 26.6667 9.37896 26.8423 9.06579 27.1548C8.75262 27.4674 8.57669 27.8913 8.57669 28.3333C8.57669 28.7754 8.75262 29.1993 9.06579 29.5118C9.37896 29.8244 9.80371 30 10.2466 30C10.6895 30 11.1142 29.8244 11.4274 29.5118C11.7406 29.1993 11.9165 28.7754 11.9165 28.3333C11.9165 27.8913 11.7406 27.4674 11.4274 27.1548C11.1142 26.8423 10.6895 26.6667 10.2466 26.6667ZM28.6155 5H5.68776L9.94601 15H23.6058C24.1569 15 24.6412 14.7333 24.9417 14.3333L29.9514 7.66667C30.1685 7.38333 30.2854 7.03333 30.2854 6.66667C30.2854 6.22464 30.1095 5.80072 29.7963 5.48816C29.4832 5.17559 29.0584 5 28.6155 5ZM23.6058 16.6667H10.0295L8.74368 19.2667L8.57669 20C8.57669 20.442 8.75262 20.866 9.06579 21.1785C9.37896 21.4911 9.80371 21.6667 10.2466 21.6667H28.6155V23.3333H10.2466C9.36082 23.3333 8.51133 22.9821 7.88499 22.357C7.25866 21.7319 6.90678 20.8841 6.90678 20C6.90629 19.4345 7.04995 18.8782 7.32426 18.3833L8.52659 15.9333L2.46484 1.66667H0.227173V0H3.56698L4.9864 3.33333H28.6155C29.5013 3.33333 30.3508 3.68452 30.9771 4.30964C31.6035 4.93476 31.9553 5.78261 31.9553 6.66667C31.9553 7.5 31.6714 8.2 31.2039 8.76667L26.3445 15.25C25.7433 16.1 24.7413 16.6667 23.6058 16.6667Z" fill="white"/>
</svg>
