<svg width="15" height="13" viewBox="0 0 15 13" fill="none" xmlns="http://www.w3.org/2000/svg">
<path d="M14.1486 5.94957L11.4301 8.28694L12.2583 11.7825C12.304 11.9722 12.2922 12.1712 12.2245 12.3543C12.1567 12.5374 12.0361 12.6964 11.8777 12.8112C11.7193 12.9259 11.5303 12.9914 11.3346 12.9992C11.1389 13.007 10.9453 12.9569 10.7782 12.8551L7.72739 10.9843L4.67475 12.8551C4.50767 12.9563 4.31428 13.006 4.11893 12.9979C3.92357 12.9897 3.735 12.9242 3.57694 12.8095C3.41889 12.6948 3.29843 12.5361 3.23072 12.3534C3.16302 12.1706 3.1511 11.972 3.19647 11.7825L4.02774 8.28694L1.30919 5.94957C1.16136 5.82227 1.05444 5.65439 1.0018 5.4669C0.949155 5.27941 0.953112 5.08062 1.01318 4.89536C1.07324 4.7101 1.18675 4.54658 1.33953 4.42521C1.49231 4.30385 1.67759 4.23002 1.87223 4.21295L5.43655 3.92643L6.81154 0.610894C6.88596 0.4302 7.01263 0.275638 7.17544 0.16686C7.33825 0.0580813 7.52985 0 7.72588 0C7.9219 0 8.1135 0.0580813 8.27631 0.16686C8.43912 0.275638 8.56579 0.4302 8.64021 0.610894L10.0146 3.92643L13.5789 4.21295C13.7739 4.22939 13.9598 4.3028 14.1131 4.424C14.2664 4.5452 14.3805 4.70879 14.4409 4.89427C14.5013 5.07976 14.5055 5.27889 14.4529 5.46672C14.4002 5.65455 14.2931 5.82273 14.145 5.95018L14.1486 5.94957Z" fill="#595F62"/>
</svg>
